<?xml version="1.0" standalone="no"?>
<!DOCTYPE svg PUBLIC "-//W3C//DTD SVG 20010904//EN"
 "http://www.w3.org/TR/2001/REC-SVG-20010904/DTD/svg10.dtd">
<svg version="1.0" xmlns="http://www.w3.org/2000/svg"
 width="512.000000pt" height="512.000000pt" viewBox="0 0 512.000000 512.000000"
 preserveAspectRatio="xMidYMid meet">
<metadata>
Created by potrace 1.14, written by Peter Selinger 2001-2017
</metadata>
<g transform="translate(0.000000,512.000000) scale(0.100000,-0.100000)"
fill="#000000" stroke="none">
<path d="M1278 4220 c-397 -5 -439 -7 -458 -22 -11 -10 -21 -26 -21 -35 -1
-10 -2 -241 -4 -513 l-2 -495 -36 -77 c-21 -42 -37 -84 -37 -92 0 -13 -11 -15
-62 -12 -176 9 -313 -88 -358 -254 -16 -61 -15 -193 4 -265 8 -33 18 -96 21
-140 3 -44 8 -105 10 -135 8 -94 15 -183 20 -245 2 -33 7 -94 10 -135 4 -41 8
-97 10 -125 2 -27 6 -84 9 -125 4 -41 9 -104 12 -140 3 -36 7 -87 9 -115 2
-27 7 -86 10 -130 3 -44 8 -102 10 -130 3 -27 7 -77 9 -110 3 -33 8 -103 12
-155 7 -104 22 -145 56 -156 27 -8 1387 -9 1414 0 40 12 47 38 59 216 4 52 9
97 12 100 2 2 485 4 1074 4 861 0 1069 3 1070 13 0 7 1 33 1 58 0 100 14 90
-127 90 -76 0 -126 4 -127 10 -3 8 -2 278 1 333 1 16 28 17 439 17 240 -1 450
3 465 8 15 5 33 21 40 36 10 21 13 301 12 1348 -1 1269 -2 1323 -19 1342 -10
11 -26 23 -36 26 -22 7 -2948 11 -3502 5z m3397 -1377 c0 -670 -3 -1220 -7
-1223 -3 -3 -595 -5 -1315 -5 l-1308 0 1 65 c1 59 10 201 19 305 2 22 6 76 10
120 6 89 14 189 20 250 2 22 10 67 18 100 53 228 -18 414 -188 491 -50 23 -73
28 -141 27 l-82 0 -12 41 c-49 163 -205 307 -361 331 -68 11 -155 13 -207 4
-71 -12 -85 -16 -125 -33 -20 -8 -38 -14 -38 -13 -1 1 -2 172 -3 380 l-1 377
1860 0 1860 0 0 -1217z m-3308 317 c37 -18 78 -49 102 -76 40 -46 81 -135 81
-177 0 -12 5 -39 11 -60 15 -54 53 -70 123 -50 128 35 215 10 255 -73 27 -55
39 -164 23 -205 l-10 -26 -745 1 c-410 1 -748 4 -752 8 -14 14 -8 144 9 194
27 82 75 116 164 115 32 0 79 -7 106 -15 78 -24 120 5 130 89 11 95 31 139 95
208 97 105 273 133 408 67z m-269 -830 l32 0 0 -780 -1 -780 -27 -1 c-152 -3
-484 0 -489 5 -4 4 -8 19 -9 34 -1 15 -5 68 -9 117 -4 50 -8 106 -11 125 -2
19 -6 77 -10 130 -3 52 -7 111 -9 130 -2 19 -6 73 -10 120 -3 47 -8 105 -10
130 -2 25 -7 81 -10 125 -4 44 -8 100 -10 125 -2 25 -7 83 -10 130 -4 47 -8
105 -11 130 -2 25 -6 86 -9 135 -3 50 -8 98 -11 107 -7 25 -16 24 614 18z
m780 0 l53 0 -6 -77 c-7 -95 -13 -176 -20 -268 -3 -38 -7 -96 -10 -127 -3 -32
-7 -84 -10 -115 -3 -32 -7 -94 -10 -138 -3 -44 -7 -100 -10 -125 -3 -25 -7
-83 -10 -130 -3 -47 -8 -101 -10 -120 -2 -19 -7 -78 -10 -130 -3 -52 -8 -115
-10 -140 -2 -25 -7 -76 -10 -115 -4 -38 -8 -72 -10 -74 -3 -3 -327 -4 -475 -2
l-45 1 3 779 2 780 43 3 c23 2 143 2 267 1 124 -1 249 -2 278 -3z m1838 -1057
l-1 -178 -857 0 c-572 0 -858 3 -859 10 -1 5 -1 13 0 17 0 4 4 49 7 100 4 51
8 104 9 118 2 14 3 44 4 68 l1 42 848 0 849 0 -1 -177z"/>
<path d="M2416 3494 c-9 -8 -20 -23 -26 -33 -15 -28 -12 -1220 3 -1251 16 -31
52 -50 83 -41 27 7 860 588 888 620 21 23 24 75 6 97 -7 7 -92 69 -189 137
-97 68 -292 206 -435 306 -266 186 -295 201 -330 165z m404 -413 c129 -91 258
-181 287 -201 29 -19 52 -38 53 -41 0 -4 -30 -27 -67 -52 -38 -26 -131 -91
-208 -146 -77 -55 -186 -131 -241 -169 l-101 -70 -1 434 0 433 22 -11 c11 -6
127 -86 256 -177z"/>
<path d="M3940 2365 l-335 -335 58 -56 57 -56 330 330 c182 181 330 333 330
338 0 6 -24 33 -53 62 l-52 52 -335 -335z"/>
<path d="M4224 2112 c-93 -93 -177 -178 -186 -189 -17 -19 -16 -21 33 -72 29
-28 56 -50 61 -49 5 2 92 86 194 188 l184 184 -52 53 c-29 29 -55 53 -59 53
-4 0 -83 -76 -175 -168z"/>
</g>
</svg>
